<svg width="32" height="32" viewBox="0 0 32 32" fill="none" xmlns="http://www.w3.org/2000/svg">
<path d="M28.1 16.7C27.8247 19.7322 26.4256 22.5518 24.1774 24.605C21.9293 26.6582 18.9947 27.7966 15.9501 27.7966C12.9054 27.7966 9.97084 26.6582 7.72272 24.605C5.47459 22.5518 4.07541 19.7322 3.80005 16.7" stroke="white" stroke-width="2.5" stroke-linecap="round" stroke-linejoin="round"/>
<path d="M5.1001 13.5C5.68007 11.0448 7.07194 8.85739 9.05023 7.29198C11.0285 5.72656 13.4774 4.87488 16.0001 4.87488C18.5229 4.87488 20.9717 5.72656 22.95 7.29198C24.9283 8.85739 26.3202 11.0448 26.9001 13.5" stroke="white" stroke-width="2.5" stroke-linecap="round" stroke-linejoin="round"/>
<path d="M2 13.5H29.9" stroke="white" stroke-width="2.5" stroke-linecap="round" stroke-linejoin="round"/>
<path d="M12.3999 18H19.4999" stroke="white" stroke-width="2.5" stroke-linecap="round" stroke-linejoin="round"/>
<path d="M12.1001 5V2H19.9001V5" stroke="white" stroke-width="2.5" stroke-linecap="round" stroke-linejoin="round"/>
<path d="M8.00012 25.2L5.1001 29.4" stroke="white" stroke-width="2.5" stroke-linecap="round" stroke-linejoin="round"/>
<path d="M23.9001 25.2L26.9001 29.4" stroke="white" stroke-width="2.5" stroke-linecap="round" stroke-linejoin="round"/>
</svg>
