<svg width="32" height="32" viewBox="0 0 32 32" fill="none" xmlns="http://www.w3.org/2000/svg">
<path d="M23.7 11.1044C23.7 11.4853 23.625 11.8624 23.4793 12.2142C23.3335 12.5661 23.1199 12.8858 22.8506 13.1551C22.5813 13.4244 22.2616 13.638 21.9098 13.7837C21.5579 13.9294 21.1808 14.0044 20.8 14.0044H12.8V20.0044C12.8 20.5614 12.5788 21.0955 12.1849 21.4894C11.7911 21.8832 11.257 22.1044 10.7 22.1044C10.143 22.1044 9.60891 21.8832 9.21508 21.4894C8.82125 21.0955 8.6 20.5614 8.6 20.0044V14.0044H6.8C6.0574 14.0044 5.3452 13.7095 4.8201 13.1844C4.295 12.6592 4 11.9471 4 11.2044C4 10.4618 4.295 9.74965 4.8201 9.22455C5.3452 8.69945 6.0574 8.40445 6.8 8.40445C6.99482 6.65211 7.82584 5.03217 9.13552 3.85175C10.4452 2.67134 12.1425 2.01251 13.9056 2.00018C15.6687 1.98785 17.375 2.62288 18.701 3.78486C20.0271 4.94684 20.8807 6.555 21.1 8.30444C21.8074 8.3551 22.4692 8.67232 22.9518 9.19203C23.4344 9.71175 23.7018 10.3952 23.7 11.1044Z" stroke="#FFFFFF" stroke-width="2.5" stroke-linecap="round" stroke-linejoin="round"/>
<path d="M17.2 18.3044V26.6044" stroke="#FFFFFF" stroke-width="2.5" stroke-linecap="round" stroke-linejoin="round"/>
<path d="M10.7 25.3044V27.2044" stroke="#FFFFFF" stroke-width="2.5" stroke-linecap="round" stroke-linejoin="round"/>
<path d="M4.90002 13.3044V28.2044C4.90002 28.7349 5.11074 29.2436 5.48581 29.6187C5.86088 29.9937 6.36959 30.2044 6.90002 30.2044H20.7C21.2305 30.2044 21.7392 29.9937 22.1142 29.6187C22.4893 29.2436 22.7 28.7349 22.7 28.2044V13.3044" stroke="#FFFFFF" stroke-width="2.5" stroke-linecap="round" stroke-linejoin="round"/>
<path d="M22.7 15.8044H25.7999C26.1713 15.8044 26.5273 15.9519 26.7899 16.2145C27.0524 16.4771 27.2 16.8331 27.2 17.2044V23.5044C27.2 23.8758 27.0524 24.2318 26.7899 24.4944C26.5273 24.7569 26.1713 24.9044 25.7999 24.9044H22.7V15.9044V15.8044Z" stroke="#FFFFFF" stroke-width="2.5" stroke-linecap="round" stroke-linejoin="round"/>
</svg>
