<svg width="32" height="32" viewBox="0 0 32 32" fill="none" xmlns="http://www.w3.org/2000/svg">
<path d="M4.59998 17.9C4.59998 21.1091 5.87479 24.1868 8.14398 26.456C10.4132 28.7252 13.4909 30 16.7 30C19.9091 30 22.9868 28.7252 25.256 26.456C27.5252 24.1868 28.8 21.1091 28.8 17.9H4.59998Z" stroke="#8A8A8A" stroke-width="2.5" stroke-linecap="round" stroke-linejoin="round"/>
<path d="M7.09998 13.8C7.27717 12.507 7.9167 11.3218 8.90025 10.4638C9.8838 9.60588 11.1448 9.13318 12.45 9.13318C13.7551 9.13318 15.0161 9.60588 15.9997 10.4638C16.9832 11.3218 17.6228 12.507 17.8 13.8" stroke="#8A8A8A" stroke-width="2.5" stroke-linecap="round" stroke-linejoin="round"/>
<path d="M14.3 8.49997C15.0261 7.67873 15.919 7.02196 16.9193 6.57358C17.9195 6.1252 19.0039 5.89554 20.1001 5.89997C21.1328 5.89988 22.1553 6.1049 23.1083 6.50313C24.0612 6.90135 24.9255 7.48485 25.6511 8.21977C26.3768 8.9547 26.9492 9.82641 27.3353 10.7843C27.7213 11.7422 27.9133 12.7673 27.9001 13.8" stroke="#8A8A8A" stroke-width="2.5" stroke-linecap="round" stroke-linejoin="round"/>
<path d="M16.9 10.9C17.6802 10.2364 18.676 9.88081 19.7 9.90003C20.8499 9.89974 21.9541 10.3496 22.7765 11.1532C23.5988 11.9569 24.0739 13.0505 24.1 14.2" stroke="#8A8A8A" stroke-width="2.5" stroke-linecap="round" stroke-linejoin="round"/>
<path d="M10.7999 8.8L4.69995 3" stroke="#8A8A8A" stroke-width="2.5" stroke-linecap="round" stroke-linejoin="round"/>
<path d="M7.5 11.8L4 8.5" stroke="#8A8A8A" stroke-width="2.5" stroke-linecap="round" stroke-linejoin="round"/>
</svg>
