<svg width="32" height="32" viewBox="0 0 32 32" fill="none" xmlns="http://www.w3.org/2000/svg">
<path d="M13 19.7L23 8.09998H3L13 19.7ZM13 19.7L23 8.09998H3L13 19.7Z" stroke="#8A8A8A" stroke-width="2.5" stroke-linecap="round" stroke-linejoin="round"/>
<path d="M13 19.7V28.7" stroke="#8A8A8A" stroke-width="2.5" stroke-linecap="round" stroke-linejoin="round"/>
<path d="M6.40002 28.7H19.6" stroke="#8A8A8A" stroke-width="2.5" stroke-linecap="round" stroke-linejoin="round"/>
<path d="M9.1001 14.8H16.9001" stroke="#8A8A8A" stroke-width="2.5" stroke-linecap="round" stroke-linejoin="round"/>
<path d="M17.9 8.10001C17.9 7.09133 18.1991 6.1053 18.7595 5.26661C19.3199 4.42792 20.1164 3.77423 21.0483 3.38822C21.9802 3.00221 23.0057 2.90121 23.995 3.098C24.9843 3.29478 25.893 3.78053 26.6063 4.49378C27.3195 5.20703 27.8052 6.11574 28.002 7.10505C28.1988 8.09435 28.0978 9.1198 27.7118 10.0517C27.3258 10.9836 26.6721 11.7801 25.8334 12.3405C24.9947 12.9009 24.0087 13.2 23 13.2C21.7763 13.194 20.5991 12.7302 19.7 11.9" stroke="#8A8A8A" stroke-width="2.5" stroke-linecap="round" stroke-linejoin="round"/>
</svg>
